<?xml version="1.0" encoding="utf-8"?>
<svg width="590" height="649" viewBox="0 0 590 649" xmlns="http://www.w3.org/2000/svg">
<rect id="frame" x="0" y="0" width="590" height="649" fill="#f5f5f5" stroke="none" stroke-width="0"/>

<!-- Association teletravaille -->
<g class="page_0_Y8X3VwjP diagram_page" visibility="visible">
	<line x1="55" y1="68" x2="176" y2="68" stroke="#bf812d" stroke-width="2"/>
	<text x="106" y="85" fill="#01665e" font-family="Verdana" font-size="12">1,1</text>
	<line x1="301" y1="312" x2="176" y2="68" stroke="#bf812d" stroke-width="2"/>
	<text x="222" y="223.49" fill="#01665e" font-family="Verdana" font-size="12">0,N</text>
	<g>
		<path d="M205 43 a14 14 90 0 1 14 14 V68 h-86 V57 a14 14 90 0 1 14 -14" fill="#dfc27d" stroke="#dfc27d" stroke-width="0"/>
		<path d="M219 68 v11 a14 14 90 0 1 -14 14 H147 a14 14 90 0 1 -14 -14 V68 H86" fill="#f6e8c3" stroke="#f6e8c3" stroke-width="0"/>
		<rect x="133" y="43" width="86" height="50" fill="none" rx="14" stroke="#bf812d" stroke-width="2"/>
		<line x1="133" y1="68" x2="219" y2="68" stroke="#bf812d" stroke-width="1"/>
		<text x="140" y="60.75" fill="#000" font-family="Verdana" font-size="12">teletravaille</text>
	</g>
</g>

<!-- Association a_pose -->
<g class="page_0_Y8X3VwjP diagram_page" visibility="visible">
	<line x1="530" y1="68" x2="416" y2="68" stroke="#bf812d" stroke-width="2"/>
	<text x="464" y="85" fill="#01665e" font-family="Verdana" font-size="12">1,1</text>
	<line x1="301" y1="312" x2="416" y2="68" stroke="#bf812d" stroke-width="2"/>
	<text x="329.53" y="194" fill="#01665e" font-family="Verdana" font-size="12">0,N</text>
	<g>
		<path d="M431 43 a14 14 90 0 1 14 14 V68 h-58 V57 a14 14 90 0 1 14 -14" fill="#dfc27d" stroke="#dfc27d" stroke-width="0"/>
		<path d="M445 68 v11 a14 14 90 0 1 -14 14 H401 a14 14 90 0 1 -14 -14 V68 H58" fill="#f6e8c3" stroke="#f6e8c3" stroke-width="0"/>
		<rect x="387" y="43" width="58" height="50" fill="none" rx="14" stroke="#bf812d" stroke-width="2"/>
		<line x1="387" y1="68" x2="445" y2="68" stroke="#bf812d" stroke-width="1"/>
		<text x="394" y="60.75" fill="#000" font-family="Verdana" font-size="12">a_pose</text>
	</g>
</g>

<!-- Association valide_tt -->
<g class="page_0_Y8X3VwjP diagram_page" visibility="visible">
	<line x1="55" y1="68" x2="55" y2="177" stroke="#bf812d" stroke-width="2"/>
	<text x="60" y="136" fill="#01665e" font-family="Verdana" font-size="12">1,1</text>
	<line x1="301" y1="312" x2="55" y2="177" stroke="#bf812d" stroke-width="2"/>
	<text x="222" y="296.19" fill="#01665e" font-family="Verdana" font-size="12">0,N</text>
	<g>
		<path d="M75 152 a14 14 90 0 1 14 14 V177 h-68 V166 a14 14 90 0 1 14 -14" fill="#dfc27d" stroke="#dfc27d" stroke-width="0"/>
		<path d="M89 177 v11 a14 14 90 0 1 -14 14 H35 a14 14 90 0 1 -14 -14 V177 H68" fill="#f6e8c3" stroke="#f6e8c3" stroke-width="0"/>
		<rect x="21" y="152" width="68" height="50" fill="none" rx="14" stroke="#bf812d" stroke-width="2"/>
		<line x1="21" y1="177" x2="89" y2="177" stroke="#bf812d" stroke-width="1"/>
		<text x="28" y="169.75" fill="#000" font-family="Verdana" font-size="12">valide_tt</text>
	</g>
</g>

<!-- Association valide_conges -->
<g class="page_0_Y8X3VwjP diagram_page" visibility="visible">
	<line x1="530" y1="68" x2="530" y2="177" stroke="#bf812d" stroke-width="2"/>
	<text x="535" y="144" fill="#01665e" font-family="Verdana" font-size="12">1,1</text>
	<line x1="301" y1="312" x2="530" y2="177" stroke="#bf812d" stroke-width="2"/>
	<text x="358" y="293.77" fill="#01665e" font-family="Verdana" font-size="12">0,N</text>
	<g>
		<path d="M566 152 a14 14 90 0 1 14 14 V177 h-100 V166 a14 14 90 0 1 14 -14" fill="#dfc27d" stroke="#dfc27d" stroke-width="0"/>
		<path d="M580 177 v11 a14 14 90 0 1 -14 14 H494 a14 14 90 0 1 -14 -14 V177 H100" fill="#f6e8c3" stroke="#f6e8c3" stroke-width="0"/>
		<rect x="480" y="152" width="100" height="50" fill="none" rx="14" stroke="#bf812d" stroke-width="2"/>
		<line x1="480" y1="177" x2="580" y2="177" stroke="#bf812d" stroke-width="1"/>
		<text x="487" y="169.75" fill="#000" font-family="Verdana" font-size="12">valide_conges</text>
	</g>
</g>

<!-- Association est_absent -->
<g class="page_0_Y8X3VwjP diagram_page" visibility="visible">
	<line x1="55" y1="312" x2="176" y2="312" stroke="#bf812d" stroke-width="2"/>
	<text x="100" y="329" fill="#01665e" font-family="Verdana" font-size="12">1,1</text>
	<line x1="301" y1="312" x2="176" y2="312" stroke="#bf812d" stroke-width="2"/>
	<text x="222" y="329" fill="#01665e" font-family="Verdana" font-size="12">0,N</text>
	<g>
		<path d="M203 287 a14 14 90 0 1 14 14 V312 h-82 V301 a14 14 90 0 1 14 -14" fill="#dfc27d" stroke="#dfc27d" stroke-width="0"/>
		<path d="M217 312 v11 a14 14 90 0 1 -14 14 H149 a14 14 90 0 1 -14 -14 V312 H82" fill="#f6e8c3" stroke="#f6e8c3" stroke-width="0"/>
		<rect x="135" y="287" width="82" height="50" fill="none" rx="14" stroke="#bf812d" stroke-width="2"/>
		<line x1="135" y1="312" x2="217" y2="312" stroke="#bf812d" stroke-width="1"/>
		<text x="143" y="304.75" fill="#000" font-family="Verdana" font-size="12">est_absent</text>
	</g>
</g>

<!-- Association informe -->
<g class="page_0_Y8X3VwjP diagram_page" visibility="visible">
	<line x1="301" y1="312" x2="416" y2="312" stroke="#bf812d" stroke-width="2"/>
	<text x="358" y="329" fill="#01665e" font-family="Verdana" font-size="12">0,N</text>
	<line x1="530" y1="312" x2="416" y2="312" stroke="#bf812d" stroke-width="2"/>
	<text x="453" y="329" fill="#01665e" font-family="Verdana" font-size="12">1,1</text>
	<g>
		<path d="M433 287 a14 14 90 0 1 14 14 V312 h-62 V301 a14 14 90 0 1 14 -14" fill="#dfc27d" stroke="#dfc27d" stroke-width="0"/>
		<path d="M447 312 v11 a14 14 90 0 1 -14 14 H399 a14 14 90 0 1 -14 -14 V312 H62" fill="#f6e8c3" stroke="#f6e8c3" stroke-width="0"/>
		<rect x="385" y="287" width="62" height="50" fill="none" rx="14" stroke="#bf812d" stroke-width="2"/>
		<line x1="385" y1="312" x2="447" y2="312" stroke="#bf812d" stroke-width="1"/>
		<text x="393" y="304.75" fill="#000" font-family="Verdana" font-size="12">informe</text>
	</g>
</g>

<!-- Association travaille_sup -->
<g class="page_0_Y8X3VwjP diagram_page" visibility="visible">
	<line x1="176" y1="581" x2="176" y2="472" stroke="#bf812d" stroke-width="2"/>
	<text x="181" y="522" fill="#01665e" font-family="Verdana" font-size="12">1,1</text>
	<line x1="301" y1="312" x2="176" y2="472" stroke="#bf812d" stroke-width="2"/>
	<text x="222" y="376.41" fill="#01665e" font-family="Verdana" font-size="12">0,N</text>
	<g>
		<path d="M208 447 a14 14 90 0 1 14 14 V472 h-92 V461 a14 14 90 0 1 14 -14" fill="#dfc27d" stroke="#dfc27d" stroke-width="0"/>
		<path d="M222 472 v11 a14 14 90 0 1 -14 14 H144 a14 14 90 0 1 -14 -14 V472 H92" fill="#f6e8c3" stroke="#f6e8c3" stroke-width="0"/>
		<rect x="130" y="447" width="92" height="50" fill="none" rx="14" stroke="#bf812d" stroke-width="2"/>
		<line x1="130" y1="472" x2="222" y2="472" stroke="#bf812d" stroke-width="1"/>
		<text x="137" y="464.75" fill="#000" font-family="Verdana" font-size="12">travaille_sup</text>
	</g>
</g>

<!-- Association travaille -->
<g class="page_0_Y8X3VwjP diagram_page" visibility="visible">
	<line x1="416" y1="581" x2="416" y2="472" stroke="#bf812d" stroke-width="2"/>
	<text x="421" y="514" fill="#01665e" font-family="Verdana" font-size="12">1,1</text>
	<line x1="301" y1="312" x2="416" y2="472" stroke="#bf812d" stroke-width="2"/>
	<text x="358" y="381.8" fill="#01665e" font-family="Verdana" font-size="12">0,N</text>
	<g>
		<path d="M434 447 a14 14 90 0 1 14 14 V472 h-64 V461 a14 14 90 0 1 14 -14" fill="#dfc27d" stroke="#dfc27d" stroke-width="0"/>
		<path d="M448 472 v11 a14 14 90 0 1 -14 14 H398 a14 14 90 0 1 -14 -14 V472 H64" fill="#f6e8c3" stroke="#f6e8c3" stroke-width="0"/>
		<rect x="384" y="447" width="64" height="50" fill="none" rx="14" stroke="#bf812d" stroke-width="2"/>
		<line x1="384" y1="472" x2="448" y2="472" stroke="#bf812d" stroke-width="1"/>
		<text x="392" y="464.75" fill="#000" font-family="Verdana" font-size="12">travaille</text>
	</g>
</g>

<!-- Entity TELETRAVAIL -->
<g class="page_0_Y8X3VwjP diagram_page" visibility="visible">
	<g>
		<rect x="9" y="17" width="92" height="25" fill="#80cdc1" stroke="#80cdc1" stroke-width="0" opacity="1"/>
		<rect x="9" y="42" width="92" height="77" fill="#c7eae5" stroke="#c7eae5" stroke-width="0" opacity="1"/>
		<rect x="9" y="17" width="92" height="102" fill="none" stroke="#35978f" stroke-width="2" opacity="1"/>
		<line x1="9" y1="42" x2="101" y2="42" stroke="#35978f" stroke-width="1"/>
	</g>
	<text x="14" y="34.75" fill="#000" font-family="Verdana" font-size="12">TELETRAVAIL</text>
	<text x="14" y="59.8" fill="#000" font-family="Verdana" font-size="12">id</text>
	<line x1="14" y1="62" x2="26" y2="62" stroke="#000" stroke-width="1"/>
	<text x="14" y="76.8" fill="#000" font-family="Verdana" font-size="12">date_debut</text>
	<text x="14" y="93.8" fill="#000" font-family="Verdana" font-size="12">date_fin</text>
	<text x="14" y="110.8" fill="#000" font-family="Verdana" font-size="12">est_valide</text>
</g>

<!-- Entity CONGES -->
<g class="page_0_Y8X3VwjP diagram_page" visibility="visible">
	<g>
		<rect x="490" y="9" width="80" height="25" fill="#80cdc1" stroke="#80cdc1" stroke-width="0" opacity="1"/>
		<rect x="490" y="34" width="80" height="93" fill="#c7eae5" stroke="#c7eae5" stroke-width="0" opacity="1"/>
		<rect x="490" y="9" width="80" height="118" fill="none" stroke="#35978f" stroke-width="2" opacity="1"/>
		<line x1="490" y1="34" x2="570" y2="34" stroke="#35978f" stroke-width="1"/>
	</g>
	<text x="504" y="26.75" fill="#000" font-family="Verdana" font-size="12">CONGES</text>
	<text x="495" y="51.8" fill="#000" font-family="Verdana" font-size="12">id</text>
	<line x1="495" y1="54" x2="507" y2="54" stroke="#000" stroke-width="1"/>
	<text x="495" y="68.8" fill="#000" font-family="Verdana" font-size="12">type</text>
	<text x="495" y="85.8" fill="#000" font-family="Verdana" font-size="12">date_debut</text>
	<text x="495" y="102.8" fill="#000" font-family="Verdana" font-size="12">date_fin</text>
	<text x="495" y="119.8" fill="#000" font-family="Verdana" font-size="12">est_valide</text>
</g>

<!-- Entity ABSCENCE -->
<g class="page_0_Y8X3VwjP diagram_page" visibility="visible">
	<g>
		<rect x="15" y="270" width="80" height="25" fill="#80cdc1" stroke="#80cdc1" stroke-width="0" opacity="1"/>
		<rect x="15" y="295" width="80" height="59" fill="#c7eae5" stroke="#c7eae5" stroke-width="0" opacity="1"/>
		<rect x="15" y="270" width="80" height="84" fill="none" stroke="#35978f" stroke-width="2" opacity="1"/>
		<line x1="15" y1="295" x2="95" y2="295" stroke="#35978f" stroke-width="1"/>
	</g>
	<text x="22" y="287.75" fill="#000" font-family="Verdana" font-size="12">ABSCENCE</text>
	<text x="20" y="312.8" fill="#000" font-family="Verdana" font-size="12">id</text>
	<line x1="20" y1="315" x2="32" y2="315" stroke="#000" stroke-width="1"/>
	<text x="20" y="329.8" fill="#000" font-family="Verdana" font-size="12">date_debut</text>
	<text x="20" y="346.8" fill="#000" font-family="Verdana" font-size="12">date_fin</text>
</g>

<!-- Entity EMPLOYE -->
<g class="page_0_Y8X3VwjP diagram_page" visibility="visible">
	<g>
		<rect x="249" y="202" width="104" height="25" fill="#80cdc1" stroke="#80cdc1" stroke-width="0" opacity="1"/>
		<rect x="249" y="227" width="104" height="195" fill="#c7eae5" stroke="#c7eae5" stroke-width="0" opacity="1"/>
		<rect x="249" y="202" width="104" height="220" fill="none" stroke="#35978f" stroke-width="2" opacity="1"/>
		<line x1="249" y1="227" x2="353" y2="227" stroke="#35978f" stroke-width="1"/>
	</g>
	<text x="273" y="219.75" fill="#000" font-family="Verdana" font-size="12">EMPLOYE</text>
	<text x="254" y="244.8" fill="#000" font-family="Verdana" font-size="12">id</text>
	<line x1="254" y1="247" x2="266" y2="247" stroke="#000" stroke-width="1"/>
	<text x="254" y="261.8" fill="#000" font-family="Verdana" font-size="12">nom</text>
	<text x="254" y="278.8" fill="#000" font-family="Verdana" font-size="12">prenom</text>
	<text x="254" y="295.8" fill="#000" font-family="Verdana" font-size="12">date_naissance</text>
	<text x="254" y="312.8" fill="#000" font-family="Verdana" font-size="12">adresse</text>
	<text x="254" y="329.8" fill="#000" font-family="Verdana" font-size="12">telephone</text>
	<text x="254" y="346.8" fill="#000" font-family="Verdana" font-size="12">mail</text>
	<text x="254" y="363.8" fill="#000" font-family="Verdana" font-size="12">mdp</text>
	<text x="254" y="380.8" fill="#000" font-family="Verdana" font-size="12">poste</text>
	<text x="254" y="397.8" fill="#000" font-family="Verdana" font-size="12">tt_possible</text>
	<text x="254" y="414.8" fill="#000" font-family="Verdana" font-size="12">est_reponsable</text>
</g>

<!-- Entity NOTIFICATION -->
<g class="page_0_Y8X3VwjP diagram_page" visibility="visible">
	<g>
		<rect x="479" y="278" width="102" height="25" fill="#80cdc1" stroke="#80cdc1" stroke-width="0" opacity="1"/>
		<rect x="479" y="303" width="102" height="43" fill="#c7eae5" stroke="#c7eae5" stroke-width="0" opacity="1"/>
		<rect x="479" y="278" width="102" height="68" fill="none" stroke="#35978f" stroke-width="2" opacity="1"/>
		<line x1="479" y1="303" x2="581" y2="303" stroke="#35978f" stroke-width="1"/>
	</g>
	<text x="485" y="295.75" fill="#000" font-family="Verdana" font-size="12">NOTIFICATION</text>
	<text x="484" y="320.8" fill="#000" font-family="Verdana" font-size="12">id</text>
	<line x1="484" y1="323" x2="496" y2="323" stroke="#000" stroke-width="1"/>
	<text x="484" y="337.8" fill="#000" font-family="Verdana" font-size="12">message</text>
</g>

<!-- Entity HEURE_SUPP -->
<g class="page_0_Y8X3VwjP diagram_page" visibility="visible">
	<g>
		<rect x="130" y="530" width="92" height="25" fill="#80cdc1" stroke="#80cdc1" stroke-width="0" opacity="1"/>
		<rect x="130" y="555" width="92" height="77" fill="#c7eae5" stroke="#c7eae5" stroke-width="0" opacity="1"/>
		<rect x="130" y="530" width="92" height="102" fill="none" stroke="#35978f" stroke-width="2" opacity="1"/>
		<line x1="130" y1="555" x2="222" y2="555" stroke="#35978f" stroke-width="1"/>
	</g>
	<text x="136" y="547.75" fill="#000" font-family="Verdana" font-size="12">HEURE_SUPP</text>
	<text x="135" y="572.8" fill="#000" font-family="Verdana" font-size="12">id</text>
	<line x1="135" y1="575" x2="147" y2="575" stroke="#000" stroke-width="1"/>
	<text x="135" y="589.8" fill="#000" font-family="Verdana" font-size="12">date</text>
	<text x="135" y="606.8" fill="#000" font-family="Verdana" font-size="12">heure_debut</text>
	<text x="135" y="623.8" fill="#000" font-family="Verdana" font-size="12">heure_fin</text>
</g>

<!-- Entity HORAIRES -->
<g class="page_0_Y8X3VwjP diagram_page" visibility="visible">
	<g>
		<rect x="358" y="522" width="116" height="25" fill="#80cdc1" stroke="#80cdc1" stroke-width="0" opacity="1"/>
		<rect x="358" y="547" width="116" height="93" fill="#c7eae5" stroke="#c7eae5" stroke-width="0" opacity="1"/>
		<rect x="358" y="522" width="116" height="118" fill="none" stroke="#35978f" stroke-width="2" opacity="1"/>
		<line x1="358" y1="547" x2="474" y2="547" stroke="#35978f" stroke-width="1"/>
	</g>
	<text x="384" y="539.75" fill="#000" font-family="Verdana" font-size="12">HORAIRES</text>
	<text x="363" y="564.8" fill="#000" font-family="Verdana" font-size="12">id</text>
	<line x1="363" y1="567" x2="375" y2="567" stroke="#000" stroke-width="1"/>
	<text x="363" y="581.8" fill="#000" font-family="Verdana" font-size="12">date</text>
	<text x="363" y="598.8" fill="#000" font-family="Verdana" font-size="12">numero_semaine</text>
	<text x="363" y="615.8" fill="#000" font-family="Verdana" font-size="12">heure_debut</text>
	<text x="363" y="632.8" fill="#000" font-family="Verdana" font-size="12">heure_fin</text>
</g>
</svg>