<?xml version="1.0" encoding="utf-8"?>
<svg width="485" height="674" viewBox="0 0 485 674" xmlns="http://www.w3.org/2000/svg">
<rect id="frame" x="0" y="0" width="485" height="674" fill="#f7f7f7" stroke="none" stroke-width="0"/>

<!-- Association teletravaille -->
<g class="page_0_O6bWSAlO diagram_page" visibility="visible">
	<line x1="55" y1="68" x2="184" y2="68" stroke="#4393c3" stroke-width="2"/>
	<text x="106" y="85" fill="#b2182b" font-family="Verdana" font-size="12">1,1</text>
	<line x1="325" y1="337" x2="184" y2="68" stroke="#4393c3" stroke-width="2"/>
	<text x="246" y="250.7" fill="#b2182b" font-family="Verdana" font-size="12">0,N</text>
	<g>
		<path d="M213 43 a14 14 90 0 1 14 14 V68 h-86 V57 a14 14 90 0 1 14 -14" fill="#92c5de" stroke="#92c5de" stroke-width="0"/>
		<path d="M227 68 v11 a14 14 90 0 1 -14 14 H155 a14 14 90 0 1 -14 -14 V68 H86" fill="#d1e5f0" stroke="#d1e5f0" stroke-width="0"/>
		<rect x="141" y="43" width="86" height="50" fill="none" rx="14" stroke="#4393c3" stroke-width="2"/>
		<line x1="141" y1="68" x2="227" y2="68" stroke="#4393c3" stroke-width="1"/>
		<text x="148" y="60.75" fill="#000" font-family="Verdana" font-size="12">teletravaille</text>
	</g>
</g>

<!-- Association a_pose -->
<g class="page_0_O6bWSAlO diagram_page" visibility="visible">
	<line x1="426" y1="68" x2="325" y2="68" stroke="#4393c3" stroke-width="2"/>
	<text x="360" y="85" fill="#b2182b" font-family="Verdana" font-size="12">1,1</text>
	<line x1="325" y1="337" x2="325" y2="68" stroke="#4393c3" stroke-width="2"/>
	<text x="330" y="219" fill="#b2182b" font-family="Verdana" font-size="12">0,N</text>
	<g>
		<path d="M340 43 a14 14 90 0 1 14 14 V68 h-58 V57 a14 14 90 0 1 14 -14" fill="#92c5de" stroke="#92c5de" stroke-width="0"/>
		<path d="M354 68 v11 a14 14 90 0 1 -14 14 H310 a14 14 90 0 1 -14 -14 V68 H58" fill="#d1e5f0" stroke="#d1e5f0" stroke-width="0"/>
		<rect x="296" y="43" width="58" height="50" fill="none" rx="14" stroke="#4393c3" stroke-width="2"/>
		<line x1="296" y1="68" x2="354" y2="68" stroke="#4393c3" stroke-width="1"/>
		<text x="303" y="60.75" fill="#000" font-family="Verdana" font-size="12">a_pose</text>
	</g>
</g>

<!-- Association valide_tt -->
<g class="page_0_O6bWSAlO diagram_page" visibility="visible">
	<line x1="55" y1="68" x2="55" y2="177" stroke="#4393c3" stroke-width="2"/>
	<text x="60" y="136" fill="#b2182b" font-family="Verdana" font-size="12">1,1</text>
	<line x1="325" y1="337" x2="55" y2="177" stroke="#4393c3" stroke-width="2"/>
	<text x="246" y="318.59" fill="#b2182b" font-family="Verdana" font-size="12">0,N</text>
	<g>
		<path d="M75 152 a14 14 90 0 1 14 14 V177 h-68 V166 a14 14 90 0 1 14 -14" fill="#92c5de" stroke="#92c5de" stroke-width="0"/>
		<path d="M89 177 v11 a14 14 90 0 1 -14 14 H35 a14 14 90 0 1 -14 -14 V177 H68" fill="#d1e5f0" stroke="#d1e5f0" stroke-width="0"/>
		<rect x="21" y="152" width="68" height="50" fill="none" rx="14" stroke="#4393c3" stroke-width="2"/>
		<line x1="21" y1="177" x2="89" y2="177" stroke="#4393c3" stroke-width="1"/>
		<text x="28" y="169.75" fill="#000" font-family="Verdana" font-size="12">valide_tt</text>
	</g>
</g>

<!-- Association valide_conges -->
<g class="page_0_O6bWSAlO diagram_page" visibility="visible">
	<line x1="426" y1="68" x2="426" y2="177" stroke="#4393c3" stroke-width="2"/>
	<text x="431" y="144" fill="#b2182b" font-family="Verdana" font-size="12">1,1</text>
	<line x1="325" y1="337" x2="426" y2="177" stroke="#4393c3" stroke-width="2"/>
	<text x="382" y="266.76" fill="#b2182b" font-family="Verdana" font-size="12">0,N</text>
	<g>
		<path d="M462 152 a14 14 90 0 1 14 14 V177 h-100 V166 a14 14 90 0 1 14 -14" fill="#92c5de" stroke="#92c5de" stroke-width="0"/>
		<path d="M476 177 v11 a14 14 90 0 1 -14 14 H390 a14 14 90 0 1 -14 -14 V177 H100" fill="#d1e5f0" stroke="#d1e5f0" stroke-width="0"/>
		<rect x="376" y="152" width="100" height="50" fill="none" rx="14" stroke="#4393c3" stroke-width="2"/>
		<line x1="376" y1="177" x2="476" y2="177" stroke="#4393c3" stroke-width="1"/>
		<text x="383" y="169.75" fill="#000" font-family="Verdana" font-size="12">valide_conges</text>
	</g>
</g>

<!-- Association est_absent -->
<g class="page_0_O6bWSAlO diagram_page" visibility="visible">
	<line x1="55" y1="337" x2="184" y2="337" stroke="#4393c3" stroke-width="2"/>
	<text x="100" y="354" fill="#b2182b" font-family="Verdana" font-size="12">1,1</text>
	<line x1="325" y1="337" x2="184" y2="337" stroke="#4393c3" stroke-width="2"/>
	<text x="246" y="354" fill="#b2182b" font-family="Verdana" font-size="12">0,N</text>
	<g>
		<path d="M211 312 a14 14 90 0 1 14 14 V337 h-82 V326 a14 14 90 0 1 14 -14" fill="#92c5de" stroke="#92c5de" stroke-width="0"/>
		<path d="M225 337 v11 a14 14 90 0 1 -14 14 H157 a14 14 90 0 1 -14 -14 V337 H82" fill="#d1e5f0" stroke="#d1e5f0" stroke-width="0"/>
		<rect x="143" y="312" width="82" height="50" fill="none" rx="14" stroke="#4393c3" stroke-width="2"/>
		<line x1="143" y1="337" x2="225" y2="337" stroke="#4393c3" stroke-width="1"/>
		<text x="151" y="329.75" fill="#000" font-family="Verdana" font-size="12">est_absent</text>
	</g>
</g>

<!-- Association travaille_sup -->
<g class="page_0_O6bWSAlO diagram_page" visibility="visible">
	<line x1="55" y1="606" x2="55" y2="497" stroke="#4393c3" stroke-width="2"/>
	<text x="60" y="547" fill="#b2182b" font-family="Verdana" font-size="12">1,1</text>
	<line x1="325" y1="337" x2="55" y2="497" stroke="#4393c3" stroke-width="2"/>
	<text x="246" y="364.41" fill="#b2182b" font-family="Verdana" font-size="12">0,N</text>
	<g>
		<path d="M87 472 a14 14 90 0 1 14 14 V497 h-92 V486 a14 14 90 0 1 14 -14" fill="#92c5de" stroke="#92c5de" stroke-width="0"/>
		<path d="M101 497 v11 a14 14 90 0 1 -14 14 H23 a14 14 90 0 1 -14 -14 V497 H92" fill="#d1e5f0" stroke="#d1e5f0" stroke-width="0"/>
		<rect x="9" y="472" width="92" height="50" fill="none" rx="14" stroke="#4393c3" stroke-width="2"/>
		<line x1="9" y1="497" x2="101" y2="497" stroke="#4393c3" stroke-width="1"/>
		<text x="16" y="489.75" fill="#000" font-family="Verdana" font-size="12">travaille_sup</text>
	</g>
</g>

<!-- Association informe -->
<g class="page_0_O6bWSAlO diagram_page" visibility="visible">
	<line x1="325" y1="337" x2="184" y2="497" stroke="#4393c3" stroke-width="2"/>
	<text x="246" y="394.45" fill="#b2182b" font-family="Verdana" font-size="12">0,N</text>
	<line x1="184" y1="606" x2="184" y2="497" stroke="#4393c3" stroke-width="2"/>
	<text x="189" y="564" fill="#b2182b" font-family="Verdana" font-size="12">1,1</text>
	<g>
		<path d="M201 472 a14 14 90 0 1 14 14 V497 h-62 V486 a14 14 90 0 1 14 -14" fill="#92c5de" stroke="#92c5de" stroke-width="0"/>
		<path d="M215 497 v11 a14 14 90 0 1 -14 14 H167 a14 14 90 0 1 -14 -14 V497 H62" fill="#d1e5f0" stroke="#d1e5f0" stroke-width="0"/>
		<rect x="153" y="472" width="62" height="50" fill="none" rx="14" stroke="#4393c3" stroke-width="2"/>
		<line x1="153" y1="497" x2="215" y2="497" stroke="#4393c3" stroke-width="1"/>
		<text x="161" y="489.75" fill="#000" font-family="Verdana" font-size="12">informe</text>
	</g>
</g>

<!-- Association travaille -->
<g class="page_0_O6bWSAlO diagram_page" visibility="visible">
	<line x1="325" y1="606" x2="325" y2="497" stroke="#4393c3" stroke-width="2"/>
	<text x="330" y="539" fill="#b2182b" font-family="Verdana" font-size="12">1,1</text>
	<line x1="325" y1="337" x2="325" y2="497" stroke="#4393c3" stroke-width="2"/>
	<text x="330" y="464" fill="#b2182b" font-family="Verdana" font-size="12">0,N</text>
	<g>
		<path d="M343 472 a14 14 90 0 1 14 14 V497 h-64 V486 a14 14 90 0 1 14 -14" fill="#92c5de" stroke="#92c5de" stroke-width="0"/>
		<path d="M357 497 v11 a14 14 90 0 1 -14 14 H307 a14 14 90 0 1 -14 -14 V497 H64" fill="#d1e5f0" stroke="#d1e5f0" stroke-width="0"/>
		<rect x="293" y="472" width="64" height="50" fill="none" rx="14" stroke="#4393c3" stroke-width="2"/>
		<line x1="293" y1="497" x2="357" y2="497" stroke="#4393c3" stroke-width="1"/>
		<text x="301" y="489.75" fill="#000" font-family="Verdana" font-size="12">travaille</text>
	</g>
</g>

<!-- Entity TELETRAVAIL -->
<g class="page_0_O6bWSAlO diagram_page" visibility="visible">
	<g>
		<rect x="9" y="17" width="92" height="25" fill="#f4a582" stroke="#f4a582" stroke-width="0" opacity="1"/>
		<rect x="9" y="42" width="92" height="77" fill="#fddbc7" stroke="#fddbc7" stroke-width="0" opacity="1"/>
		<rect x="9" y="17" width="92" height="102" fill="none" stroke="#d6604d" stroke-width="2" opacity="1"/>
		<line x1="9" y1="42" x2="101" y2="42" stroke="#d6604d" stroke-width="1"/>
	</g>
	<text x="14" y="34.75" fill="#000" font-family="Verdana" font-size="12">TELETRAVAIL</text>
	<text x="14" y="59.8" fill="#000" font-family="Verdana" font-size="12">id</text>
	<line x1="14" y1="62" x2="26" y2="62" stroke="#000" stroke-width="1"/>
	<text x="14" y="76.8" fill="#000" font-family="Verdana" font-size="12">date_debut</text>
	<text x="14" y="93.8" fill="#000" font-family="Verdana" font-size="12">date_fin</text>
	<text x="14" y="110.8" fill="#000" font-family="Verdana" font-size="12">est_valide</text>
</g>

<!-- Entity CONGES -->
<g class="page_0_O6bWSAlO diagram_page" visibility="visible">
	<g>
		<rect x="386" y="9" width="80" height="25" fill="#f4a582" stroke="#f4a582" stroke-width="0" opacity="1"/>
		<rect x="386" y="34" width="80" height="93" fill="#fddbc7" stroke="#fddbc7" stroke-width="0" opacity="1"/>
		<rect x="386" y="9" width="80" height="118" fill="none" stroke="#d6604d" stroke-width="2" opacity="1"/>
		<line x1="386" y1="34" x2="466" y2="34" stroke="#d6604d" stroke-width="1"/>
	</g>
	<text x="400" y="26.75" fill="#000" font-family="Verdana" font-size="12">CONGES</text>
	<text x="391" y="51.8" fill="#000" font-family="Verdana" font-size="12">id</text>
	<line x1="391" y1="54" x2="403" y2="54" stroke="#000" stroke-width="1"/>
	<text x="391" y="68.8" fill="#000" font-family="Verdana" font-size="12">type</text>
	<text x="391" y="85.8" fill="#000" font-family="Verdana" font-size="12">date_debut</text>
	<text x="391" y="102.8" fill="#000" font-family="Verdana" font-size="12">date_fin</text>
	<text x="391" y="119.8" fill="#000" font-family="Verdana" font-size="12">est_valide</text>
</g>

<!-- Entity ABSCENCE -->
<g class="page_0_O6bWSAlO diagram_page" visibility="visible">
	<g>
		<rect x="15" y="295" width="80" height="25" fill="#f4a582" stroke="#f4a582" stroke-width="0" opacity="1"/>
		<rect x="15" y="320" width="80" height="59" fill="#fddbc7" stroke="#fddbc7" stroke-width="0" opacity="1"/>
		<rect x="15" y="295" width="80" height="84" fill="none" stroke="#d6604d" stroke-width="2" opacity="1"/>
		<line x1="15" y1="320" x2="95" y2="320" stroke="#d6604d" stroke-width="1"/>
	</g>
	<text x="22" y="312.75" fill="#000" font-family="Verdana" font-size="12">ABSCENCE</text>
	<text x="20" y="337.8" fill="#000" font-family="Verdana" font-size="12">id</text>
	<line x1="20" y1="340" x2="32" y2="340" stroke="#000" stroke-width="1"/>
	<text x="20" y="354.8" fill="#000" font-family="Verdana" font-size="12">date_debut</text>
	<text x="20" y="371.8" fill="#000" font-family="Verdana" font-size="12">date_fin</text>
</g>

<!-- Entity EMPLOYE -->
<g class="page_0_O6bWSAlO diagram_page" visibility="visible">
	<g>
		<rect x="273" y="227" width="104" height="25" fill="#f4a582" stroke="#f4a582" stroke-width="0" opacity="1"/>
		<rect x="273" y="252" width="104" height="195" fill="#fddbc7" stroke="#fddbc7" stroke-width="0" opacity="1"/>
		<rect x="273" y="227" width="104" height="220" fill="none" stroke="#d6604d" stroke-width="2" opacity="1"/>
		<line x1="273" y1="252" x2="377" y2="252" stroke="#d6604d" stroke-width="1"/>
	</g>
	<text x="297" y="244.75" fill="#000" font-family="Verdana" font-size="12">EMPLOYE</text>
	<text x="278" y="269.8" fill="#000" font-family="Verdana" font-size="12">id</text>
	<line x1="278" y1="272" x2="290" y2="272" stroke="#000" stroke-width="1"/>
	<text x="278" y="286.8" fill="#000" font-family="Verdana" font-size="12">nom</text>
	<text x="278" y="303.8" fill="#000" font-family="Verdana" font-size="12">prenom</text>
	<text x="278" y="320.8" fill="#000" font-family="Verdana" font-size="12">date_naissance</text>
	<text x="278" y="337.8" fill="#000" font-family="Verdana" font-size="12">adresse</text>
	<text x="278" y="354.8" fill="#000" font-family="Verdana" font-size="12">telephone</text>
	<text x="278" y="371.8" fill="#000" font-family="Verdana" font-size="12">mail</text>
	<text x="278" y="388.8" fill="#000" font-family="Verdana" font-size="12">mdp</text>
	<text x="278" y="405.8" fill="#000" font-family="Verdana" font-size="12">poste</text>
	<text x="278" y="422.8" fill="#000" font-family="Verdana" font-size="12">tt_possible</text>
	<text x="278" y="439.8" fill="#000" font-family="Verdana" font-size="12">est_reponsable</text>
</g>

<!-- Entity HEURE_SUPP -->
<g class="page_0_O6bWSAlO diagram_page" visibility="visible">
	<g>
		<rect x="9" y="555" width="92" height="25" fill="#f4a582" stroke="#f4a582" stroke-width="0" opacity="1"/>
		<rect x="9" y="580" width="92" height="77" fill="#fddbc7" stroke="#fddbc7" stroke-width="0" opacity="1"/>
		<rect x="9" y="555" width="92" height="102" fill="none" stroke="#d6604d" stroke-width="2" opacity="1"/>
		<line x1="9" y1="580" x2="101" y2="580" stroke="#d6604d" stroke-width="1"/>
	</g>
	<text x="15" y="572.75" fill="#000" font-family="Verdana" font-size="12">HEURE_SUPP</text>
	<text x="14" y="597.8" fill="#000" font-family="Verdana" font-size="12">id</text>
	<line x1="14" y1="600" x2="26" y2="600" stroke="#000" stroke-width="1"/>
	<text x="14" y="614.8" fill="#000" font-family="Verdana" font-size="12">date</text>
	<text x="14" y="631.8" fill="#000" font-family="Verdana" font-size="12">heure_debut</text>
	<text x="14" y="648.8" fill="#000" font-family="Verdana" font-size="12">heure_fin</text>
</g>

<!-- Entity NOTIFICATION -->
<g class="page_0_O6bWSAlO diagram_page" visibility="visible">
	<g>
		<rect x="133" y="572" width="102" height="25" fill="#f4a582" stroke="#f4a582" stroke-width="0" opacity="1"/>
		<rect x="133" y="597" width="102" height="43" fill="#fddbc7" stroke="#fddbc7" stroke-width="0" opacity="1"/>
		<rect x="133" y="572" width="102" height="68" fill="none" stroke="#d6604d" stroke-width="2" opacity="1"/>
		<line x1="133" y1="597" x2="235" y2="597" stroke="#d6604d" stroke-width="1"/>
	</g>
	<text x="139" y="589.75" fill="#000" font-family="Verdana" font-size="12">NOTIFICATION</text>
	<text x="138" y="614.8" fill="#000" font-family="Verdana" font-size="12">id</text>
	<line x1="138" y1="617" x2="150" y2="617" stroke="#000" stroke-width="1"/>
	<text x="138" y="631.8" fill="#000" font-family="Verdana" font-size="12">message</text>
</g>

<!-- Entity HORAIRES -->
<g class="page_0_O6bWSAlO diagram_page" visibility="visible">
	<g>
		<rect x="267" y="547" width="116" height="25" fill="#f4a582" stroke="#f4a582" stroke-width="0" opacity="1"/>
		<rect x="267" y="572" width="116" height="93" fill="#fddbc7" stroke="#fddbc7" stroke-width="0" opacity="1"/>
		<rect x="267" y="547" width="116" height="118" fill="none" stroke="#d6604d" stroke-width="2" opacity="1"/>
		<line x1="267" y1="572" x2="383" y2="572" stroke="#d6604d" stroke-width="1"/>
	</g>
	<text x="293" y="564.75" fill="#000" font-family="Verdana" font-size="12">HORAIRES</text>
	<text x="272" y="589.8" fill="#000" font-family="Verdana" font-size="12">id</text>
	<line x1="272" y1="592" x2="284" y2="592" stroke="#000" stroke-width="1"/>
	<text x="272" y="606.8" fill="#000" font-family="Verdana" font-size="12">date</text>
	<text x="272" y="623.8" fill="#000" font-family="Verdana" font-size="12">numero_semaine</text>
	<text x="272" y="640.8" fill="#000" font-family="Verdana" font-size="12">heure_debut</text>
	<text x="272" y="657.8" fill="#000" font-family="Verdana" font-size="12">heure_fin</text>
</g>
</svg>